<svg id="visual" viewBox="0 0 900 600" width="900" height="600" xmlns="http://www.w3.org/2000/svg" xmlns:xlink="http://www.w3.org/1999/xlink" version="1.1"><rect width="900" height="600" fill="#ddf2f4"></rect><g><g transform="translate(503 164)"><path d="M0 -68.6L59.4 -34.3L59.4 34.3L0 68.6L-59.4 34.3L-59.4 -34.3Z" fill="none" stroke="#84a6d6" stroke-width="3"></path></g><g transform="translate(26 305)"><path d="M0 -62L53.7 -31L53.7 31L0 62L-53.7 31L-53.7 -31Z" fill="none" stroke="#84a6d6" stroke-width="3"></path></g><g transform="translate(106 28)"><path d="M0 -58L50.2 -29L50.2 29L0 58L-50.2 29L-50.2 -29Z" fill="none" stroke="#84a6d6" stroke-width="3"></path></g><g transform="translate(731 95)"><path d="M0 -55L47.6 -27.5L47.6 27.5L0 55L-47.6 27.5L-47.6 -27.5Z" fill="none" stroke="#84a6d6" stroke-width="3"></path></g><g transform="translate(191 598)"><path d="M0 -60L52 -30L52 30L0 60L-52 30L-52 -30Z" fill="none" stroke="#84a6d6" stroke-width="3"></path></g><g transform="translate(587 450)"><path d="M0 -53L45.9 -26.5L45.9 26.5L0 53L-45.9 26.5L-45.9 -26.5Z" fill="none" stroke="#84a6d6" stroke-width="3"></path></g><g transform="translate(853 583)"><path d="M0 -62L53.7 -31L53.7 31L0 62L-53.7 31L-53.7 -31Z" fill="none" stroke="#84a6d6" stroke-width="3"></path></g><g transform="translate(34 498)"><path d="M0 -58L50.2 -29L50.2 29L0 58L-50.2 29L-50.2 -29Z" fill="none" stroke="#84a6d6" stroke-width="3"></path></g><g transform="translate(6 153)"><path d="M0 -65L56.3 -32.5L56.3 32.5L0 65L-56.3 32.5L-56.3 -32.5Z" fill="none" stroke="#84a6d6" stroke-width="3"></path></g><g transform="translate(610 597)"><path d="M0 -56L48.5 -28L48.5 28L0 56L-48.5 28L-48.5 -28Z" fill="none" stroke="#84a6d6" stroke-width="3"></path></g><g transform="translate(741 299)"><path d="M0 -64L55.4 -32L55.4 32L0 64L-55.4 32L-55.4 -32Z" fill="none" stroke="#84a6d6" stroke-width="3"></path></g></g></svg>